<svg width="24" height="25" viewBox="0 0 24 25" fill="none" xmlns="http://www.w3.org/2000/svg">
<path d="M10.7566 12.5002L15.7066 17.4502C15.8021 17.5424 15.8783 17.6528 15.9307 17.7748C15.9831 17.8968 16.0107 18.028 16.0118 18.1608C16.013 18.2936 15.9877 18.4252 15.9374 18.5481C15.8871 18.671 15.8128 18.7827 15.719 18.8766C15.6251 18.9705 15.5134 19.0447 15.3905 19.095C15.2676 19.1453 15.1359 19.1706 15.0032 19.1694C14.8704 19.1683 14.7392 19.1407 14.6172 19.0883C14.4952 19.0359 14.3848 18.9597 14.2926 18.8642L8.63556 13.2072C8.44809 13.0197 8.34277 12.7653 8.34277 12.5002C8.34277 12.235 8.44809 11.9807 8.63556 11.7932L14.2926 6.13618C14.4812 5.95402 14.7338 5.85323 14.996 5.85551C15.2582 5.85778 15.509 5.96295 15.6944 6.14836C15.8798 6.33377 15.985 6.58458 15.9872 6.84678C15.9895 7.10898 15.8887 7.36158 15.7066 7.55018L10.7566 12.5002Z" fill="#94A3B8"/>
</svg>
