<svg width="24" height="25" viewBox="0 0 24 25" fill="none" xmlns="http://www.w3.org/2000/svg">
<path d="M13.3137 12.571L8.36372 7.62098C8.18156 7.43238 8.08077 7.17978 8.08305 6.91758C8.08532 6.65538 8.19049 6.40457 8.3759 6.21916C8.56131 6.03375 8.81212 5.92859 9.07432 5.92631C9.33652 5.92403 9.58912 6.02482 9.77772 6.20698L15.4347 11.864C15.6222 12.0515 15.7275 12.3058 15.7275 12.571C15.7275 12.8361 15.6222 13.0905 15.4347 13.278L9.77772 18.935C9.58912 19.1171 9.33652 19.2179 9.07432 19.2157C8.81212 19.2134 8.56131 19.1082 8.3759 18.9228C8.19049 18.7374 8.08532 18.4866 8.08305 18.2244C8.08077 17.9622 8.18156 17.7096 8.36372 17.521L13.3137 12.571V12.571Z" fill="#475569"/>
</svg>
