<svg width="319" height="202" viewBox="0 0 319 202" fill="none" xmlns="http://www.w3.org/2000/svg">
<path d="M315.346 144.376C318.759 133.329 319.556 121.568 317.103 110.265C313.277 92.582 300.958 71.1744 265.41 61.9395C198.111 44.4491 174.736 -6.6858 111.785 9.59647C111.785 9.59647 78.0034 15.7378 62.014 71.6412C46.0246 127.545 -16.6241 128.496 4.93913 177.169C8.46284 185.123 17.9631 193.808 31.5912 202L286.9 201.14C304.546 179.924 310.037 161.573 315.346 144.367V144.376Z" fill="#EBEBFF"/>
<path d="M255.104 104.398H245.521V93.9184C245.521 88.6557 241.86 84.2626 236.945 83.1185V70.1128H233.422V82.8714C227.766 83.3839 223.336 88.1249 223.336 93.9184V104.709H213.808V116.726H213.167V139.068L195.851 138.939V112.242H176.008V131.81H162.087V150.819H145.256V201.131H201.168H213.176H283.284V137.686H255.095L255.122 104.398H255.104Z" fill="#D6D7F4"/>
<path d="M57.4472 132.057V107.043H66.8285V93.6621H70.3522V107.043H78.9921V132.057H88.6846V147.039H104.125V95.996H136.378V201.131H115.364H106.312H83.5317H73.0064H45.5215V132.057H57.4472Z" fill="#D6D7F4"/>
<path d="M233.623 200.874L86.6525 200.993C81.0878 200.993 76.5664 196.49 76.5664 190.925L243.7 190.797C243.7 196.362 239.197 200.883 233.632 200.883L233.623 200.874Z" fill="#3D5AC4"/>
<path d="M233.623 197.405L86.6521 197.524C82.3047 197.524 78.6162 194.779 77.1976 190.925H76.5752C76.5752 196.49 81.0965 201.002 86.6612 200.993L233.632 200.874C239.197 200.874 243.709 196.353 243.7 190.788H243.077C241.668 194.641 237.979 197.405 233.632 197.405H233.623Z" fill="#5571E9"/>
<path d="M169.628 194.22L150.637 194.238C148.77 194.238 147.26 192.728 147.26 190.87L172.997 190.852C172.997 192.719 171.486 194.229 169.628 194.229V194.22Z" fill="#27429C"/>
<path d="M235.097 190.797L85.1699 190.916L85.0967 100.417C85.0967 95.2272 89.2977 91.0171 94.4871 91.0079L225.615 90.9072C230.804 90.9072 235.014 95.1082 235.024 100.298L235.097 190.788V190.797Z" fill="#5571E9"/>
<path d="M227.244 98.7783H92.9316V183.036H227.244V98.7783Z" fill="#312C76"/>
<path d="M227.272 174.982H92.959V183.036H227.272V174.982Z" fill="#151247"/>
<path d="M227.216 98.7783H92.9033V102.778H227.216V98.7783Z" fill="#151247"/>
<path opacity="0.16" d="M137.696 98.7964L92.9316 143.625L92.9683 183.091H93.0598L177.253 98.7598L137.696 98.7964Z" fill="#5571E9"/>
<path opacity="0.16" d="M110.312 183.082L130.146 183.054L214.34 98.7324L194.506 98.7507L110.312 183.082Z" fill="#5571E9"/>
<path opacity="0.16" d="M211.484 182.999L227.272 167.184L227.245 137.264L179.862 183.017L211.484 182.999Z" fill="#5571E9"/>
<path d="M235.097 134.766H85.0967V151.323H235.097V134.766Z" fill="#F5D100"/>
<mask id="mask0_344_850" style="mask-type:luminance" maskUnits="userSpaceOnUse" x="85" y="134" width="151" height="18">
<path d="M235.097 134.766H85.0967V151.323H235.097V134.766Z" fill="white"/>
</mask>
<g mask="url(#mask0_344_850)">
<path d="M103.804 157.135H90.8994L102.011 131.718H114.916L103.804 157.135Z" fill="white"/>
<path d="M131.326 157.135H118.421L129.532 131.718H142.437L131.326 157.135Z" fill="white"/>
<path d="M158.857 157.135H145.942L157.053 131.718H169.958L158.857 157.135Z" fill="white"/>
<path d="M186.378 157.135H173.473L184.575 131.718H197.489L186.378 157.135Z" fill="white"/>
<path d="M213.9 157.135H200.995L212.106 131.718H225.011L213.9 157.135Z" fill="white"/>
</g>
<path d="M73.0517 106.173L70.1229 106.283L68.4023 105.743C67.6151 105.496 66.7548 105.789 66.288 106.475L66.0684 106.795L74.6443 111.527L76.3009 107.976L73.0426 106.173H73.0517Z" fill="#14103D"/>
<path d="M74.6536 111.61L66.0137 106.841L66.3157 106.292C66.3798 106.182 66.5079 106.146 66.6177 106.201L75.0655 110.868L74.6536 111.61Z" fill="#14103D"/>
<path d="M76.3009 107.976L78.5707 104.059L76.3009 100.014L73.0518 106.173L76.3009 107.976Z" fill="#EB8175"/>
<path d="M94.0478 85.4338C94.0478 85.4338 81.8292 81.9284 80.6577 85.2233C79.4771 88.5182 72.3564 103.116 72.3564 103.116L77.674 105.89L85.655 92.0327L96.3908 91.0991L94.057 85.4338H94.0478Z" fill="#14103D"/>
<path d="M84.1173 110.621L81.7285 112.141L79.9621 112.498C79.1475 112.662 78.5434 113.34 78.4702 114.163L78.4336 114.548L88.2268 114.53L87.9522 110.612H84.1173V110.621Z" fill="#14103D"/>
<path d="M88.2726 114.603L78.4062 114.621V113.999C78.4062 113.88 78.5069 113.779 78.6259 113.779L88.2726 113.761V114.612" fill="#14103D"/>
<path d="M87.9521 110.63L88.2724 104.059L84.3643 103.62L84.1172 110.621L87.9521 110.63Z" fill="#EB8175"/>
<path d="M95.6957 84.8754L84.1819 85.3971C84.1819 85.3971 82.5253 85.4886 82.6351 89.3601C82.7449 93.2407 82.7358 108.837 82.7358 108.837L88.2639 109.029L89.3256 92.6916L100.849 92.5452C103.274 92.5177 105.535 91.1265 106.496 88.8933C106.862 88.0421 107.036 87.0811 106.816 86.0743L95.6957 84.8662V84.8754Z" fill="#231C61"/>
<path d="M84.7674 82.5507C84.7674 83.6398 84.026 83.8046 82.9369 83.8137C81.8477 83.8137 80.8135 83.6581 80.8135 82.5598C80.8135 81.4707 81.6921 80.5829 82.7904 80.5737C83.8796 80.5737 84.7673 81.4524 84.7765 82.5507H84.7674Z" fill="#E1AD9D"/>
<path d="M86.1585 83.6672H83.8704C83.2755 83.6672 82.7812 83.1821 82.7812 82.5872C82.7812 81.9923 83.2663 81.498 83.8612 81.498H86.1494C86.7443 81.498 87.2385 81.9831 87.2385 82.578C87.2385 83.1729 86.7534 83.6672 86.1585 83.6672Z" fill="#E1AD9D"/>
<path d="M86.076 83.9054L85.3164 80.1621L94.716 79.137L96.5922 68.154C96.7844 67.1564 98.2305 65.9208 99.2282 66.1039L98.9444 66.0215C99.9421 66.2137 100.857 67.3669 100.674 68.3645L98.8438 81.5075C98.7065 82.2122 98.1756 82.7797 97.4709 82.9536L86.0852 83.9054H86.076Z" fill="#C8C6F2"/>
<path d="M104.848 66.3509C105.04 66.3692 105.232 66.4058 105.415 66.4791L105.507 66.5157C107.118 67.1472 108.216 68.877 108.289 70.497L106.816 86.0837C97.0773 86.0013 95.6953 84.8755 95.6953 84.8755L96.4733 68.9319C96.5922 67.4309 97.2787 66.0123 98.9902 65.875L104.848 66.3509Z" fill="#D8D7FD"/>
<path d="M94.1211 83.7769C94.1943 84.8661 93.4713 85.0766 92.3821 85.159C91.293 85.2322 90.2496 85.1407 90.1764 84.0515C90.1032 82.9624 90.9269 82.0196 92.016 81.9464C93.1052 81.8732 94.0479 82.6969 94.1211 83.7861V83.7769Z" fill="#EB8175"/>
<path d="M95.585 84.8021L93.306 84.9577C92.7111 84.9943 92.1895 84.5458 92.1437 83.9509C92.1071 83.356 92.5556 82.8343 93.1505 82.7886L95.4294 82.633C96.0243 82.5963 96.546 83.0448 96.5827 83.6397C96.6193 84.2346 96.1708 84.7563 95.5759 84.8021H95.585Z" fill="#EB8175"/>
<path d="M95.5126 85.0401L94.5059 81.3608L104.747 79.7134L104.162 70.1856C104.281 69.1788 105.388 68.0439 106.395 68.1629C107.402 68.2819 108.399 69.3802 108.271 70.387L109.013 81.8001C108.921 82.514 108.427 83.1181 107.74 83.3286L95.5126 85.031V85.0401Z" fill="#D8D7FD"/>
<path d="M77.7837 72.3824L88.9589 73.4349C89.325 73.4715 89.6179 73.7553 89.6637 74.1214L90.8352 84.1982C90.8901 84.6925 90.4782 85.1135 89.984 85.0677L78.6166 83.9969C78.2414 83.9603 77.9485 83.6674 77.9119 83.2921L76.9234 73.2336C76.8776 72.7485 77.2895 72.3366 77.7746 72.3824H77.7837Z" fill="#091218"/>
<path d="M77.1431 72.3184L88.3183 73.371C88.6844 73.4076 88.9773 73.6913 89.023 74.0574L90.1946 84.1343C90.2495 84.6285 89.8376 85.0495 89.3434 85.0038L77.976 83.9329C77.6007 83.8963 77.3079 83.6034 77.2713 83.2282L76.2828 73.1696C76.237 72.6845 76.6489 72.2727 77.134 72.3184H77.1431Z" fill="#1B2934"/>
<path d="M90.5332 84.2622L98.1663 84.9852C98.3951 85.0035 98.569 85.214 98.5507 85.4429C98.5324 85.6717 98.3219 85.8456 98.0931 85.8273L89.9932 85.0951L90.5332 84.2622Z" fill="#091218"/>
<path d="M83.5494 78.4322C83.4854 79.1003 82.8905 79.5946 82.2132 79.5397C81.545 79.4756 81.0508 78.8807 81.1057 78.2034C81.1698 77.5353 81.7647 77.041 82.442 77.096C83.1101 77.16 83.6043 77.7549 83.5494 78.4322Z" fill="white"/>
<path d="M103.805 72.3823L104.061 79.5396L94.5059 81.3517L102.926 78.725L103.805 72.3823Z" fill="#C8C6F2"/>
<path d="M98.7422 65.3991L99.3829 67.1106C99.6117 67.733 100.188 68.154 100.847 68.1998C102.101 68.2821 102.998 67.0191 102.504 65.8659L101.387 63.23L98.7513 65.39L98.7422 65.3991Z" fill="#EB8175"/>
<path d="M99.3097 66.9279C99.3097 66.9279 102.458 66.333 101.991 63.5781C101.525 60.8232 98.5684 62.9741 98.5684 62.9741L98.8612 65.7198L99.3097 66.9279Z" fill="#E16C5F"/>
<path d="M94.45 58.6905C93.2968 61.1617 94.3585 64.0996 96.8297 65.2528C99.3008 66.406 102.239 65.3444 103.392 62.8732C104.545 60.402 103.484 57.4641 101.012 56.3109C98.5412 55.1577 95.6032 56.2193 94.45 58.6905Z" fill="#EB8175"/>
<mask id="mask1_344_850" style="mask-type:luminance" maskUnits="userSpaceOnUse" x="93" y="55" width="11" height="11">
<path d="M94.45 58.6905C93.2968 61.1617 94.3585 64.0996 96.8297 65.2528C99.3008 66.406 102.239 65.3444 103.392 62.8732C104.545 60.402 103.484 57.4641 101.012 56.3109C98.5412 55.1577 95.6032 56.2193 94.45 58.6905Z" fill="white"/>
</mask>
<g mask="url(#mask1_344_850)">
<path d="M100.757 61.7565C100.757 61.7565 99.9786 65.7103 102.889 65.8019C105.8 65.8842 104.216 58.3792 104.216 58.3792L99.6125 53.748L92.5742 55.4779L93.2698 60.0267C93.2698 60.0267 94.3864 60.6216 100.445 59.6239L100.766 61.7473L100.757 61.7565Z" fill="#231C61"/>
<path d="M97.8828 58.6538L100.198 62.0402L102.194 59.8345L97.8828 58.6538Z" fill="#231C61"/>
</g>
<path d="M99.978 60.8321C99.6486 61.5277 99.9506 62.3605 100.655 62.69C101.351 63.0195 102.184 62.7175 102.513 62.0128C102.843 61.3172 102.541 60.4843 101.836 60.1548C101.14 59.8253 100.308 60.1273 99.978 60.8321Z" fill="#EB8175"/>
<path d="M93.4891 59.9534C93.4891 59.9534 92.4183 56.0636 94.9443 53.6565C97.022 51.6704 100.427 51.7986 102.275 54.0043C103.145 55.0386 103.841 56.6036 103.905 58.9467L93.4891 59.9626V59.9534Z" fill="#F5D100"/>
<path d="M94.0294 59.8894L94.002 57.464C94.002 56.8508 94.4779 56.3382 95.0911 56.3108C95.6952 56.2833 96.226 56.7318 96.2809 57.3358L96.528 59.7612" stroke="#F1AB00" stroke-width="0.28" stroke-miterlimit="10"/>
<path d="M103.905 58.9468L92.5742 60.0268" stroke="white" stroke-width="1.12" stroke-linecap="round" stroke-linejoin="round"/>
<path d="M207.072 190.239L209.616 192.701L206.715 194.257L204.234 191.831L207.072 190.239Z" fill="#EB8175"/>
<path d="M189.197 171.861L190.89 179.375C191.229 180.876 191.888 182.322 192.822 183.649L203.997 193.689L208.417 190.092L198.881 179.988L195.384 166.662L189.197 171.861Z" fill="#14103D"/>
<path d="M206.633 194.183L205.717 197.103L204.674 198.558C204.189 199.226 204.207 200.133 204.72 200.782L204.958 201.084L212.087 194.44L209.241 191.776L206.642 194.183H206.633Z" fill="#14103D"/>
<path d="M212.152 194.467L204.967 201.158L204.391 200.544L211.575 193.845L212.152 194.467Z" fill="#14103D"/>
<path d="M182.644 194.806L181.692 197.991L178.415 197.112L179.376 193.991L182.644 194.806Z" fill="#EB8175"/>
<path d="M187.028 163.477L177.866 194.458L183.651 195.904L188.813 180.373L195.146 170.213C195.466 169.756 195.787 169.289 196.052 168.795C196.556 167.861 196.784 166.854 196.775 165.838L196.757 163.825L187.037 163.486L187.028 163.477Z" fill="#231C61"/>
<path d="M178.607 196.811L175.715 197.881L173.912 197.945C173.079 197.973 172.375 198.55 172.164 199.346L172.063 199.721L181.747 201.314L182.122 197.396L178.598 196.811H178.607Z" fill="#14103D"/>
<path d="M181.783 201.378L172.018 199.776L172.155 198.934L181.921 200.545L181.783 201.378Z" fill="#14103D"/>
<path d="M174.242 132.011L170.535 137.786L172.311 139.067L176.146 132.953L174.242 132.011Z" fill="#334FBE"/>
<path d="M169.427 122.438C169.427 122.438 171.139 129.604 179.815 132.423C180.062 132.505 180.254 132.716 180.291 132.972C180.401 133.805 180.401 135.599 178.488 136.13C178.305 136.175 178.104 136.139 177.948 136.047C176.621 135.214 170.095 131.407 163.762 132.505L169.436 122.447L169.427 122.438Z" fill="#4265D1"/>
<path d="M169.427 122.438C169.427 122.438 167.835 129.586 163.753 132.496C163.753 132.496 164.33 126.227 169.427 122.438Z" fill="#334FBE"/>
<path d="M169.327 137.411C169.061 138.729 170.141 140.33 171.459 140.596C172.777 140.861 174.058 140.019 174.324 138.701C174.589 137.383 173.509 135.782 172.191 135.516C170.873 135.251 169.592 136.093 169.327 137.411Z" fill="#EB8175"/>
<path d="M176.283 141.273L173.72 138.591L172.036 140.66L176.283 143.772" fill="#EB8175"/>
<path d="M175.879 138.792L173.161 142.829L180.584 149.62C181.032 149.748 181.508 149.794 181.975 149.757L191.777 148.485C193.324 148.412 194.514 147.103 194.441 145.556C194.367 144.009 194.66 141.776 193.123 141.849L181.737 144.192L175.879 138.792Z" fill="#C8C6F2"/>
<path d="M197.855 148.055C198.121 145.914 197.141 143.8 195.329 142.628C194.515 142.106 193.7 141.749 193.123 141.85C191.174 142.18 189.16 143.067 188.3 145.703C186.836 150.188 186.424 163.45 186.424 163.45L196.931 163.807L197.864 148.046L197.855 148.055Z" fill="#D8D7FD"/>
<path d="M193.975 148.385L197.141 159.999L197.773 150.151L193.975 148.385Z" fill="#C8C6F2"/>
<path d="M206.852 171.294C207.84 170.387 207.914 168.456 207.017 167.468C206.111 166.47 204.573 166.406 203.584 167.303C202.587 168.209 202.523 170.14 203.42 171.129C204.326 172.117 205.863 172.19 206.852 171.294Z" fill="#EB8175"/>
<path d="M202.083 163.029L204.005 167.751L206.577 167.074L204.984 162.059" fill="#EB8175"/>
<path d="M202.211 166.671L207.474 165.518L203.905 153.318C203.777 152.869 203.557 152.439 203.273 152.064L196.72 143.909C195.832 142.637 194.34 142.866 193.077 143.753C191.805 144.641 191.503 146.38 192.382 147.652L198.688 155.24L202.202 166.68L202.211 166.671Z" fill="#D8D7FD"/>
<path d="M190.661 140.257L190.863 142.097C190.936 142.765 191.384 143.323 192.025 143.525C193.233 143.918 194.423 142.902 194.231 141.648L193.791 138.784L190.67 140.248L190.661 140.257Z" fill="#EB8175"/>
<path d="M190.844 141.896C190.844 141.896 194.084 141.786 194.322 138.976C194.551 136.166 191.11 137.841 191.11 137.841L190.707 140.605L190.844 141.896Z" fill="#E16C5F"/>
<path d="M188.135 132.615C186.387 134.748 186.698 137.896 188.83 139.644C190.963 141.392 194.111 141.081 195.859 138.949C197.608 136.816 197.296 133.668 195.164 131.919C193.031 130.171 189.883 130.483 188.135 132.615Z" fill="#EB8175"/>
<mask id="mask2_344_850" style="mask-type:luminance" maskUnits="userSpaceOnUse" x="187" y="130" width="10" height="11">
<path d="M188.135 132.615C186.387 134.748 186.698 137.896 188.83 139.644C190.963 141.392 194.111 141.081 195.859 138.949C197.608 136.816 197.296 133.668 195.164 131.919C193.031 130.171 189.883 130.483 188.135 132.615Z" fill="white"/>
</mask>
<g mask="url(#mask2_344_850)">
<path d="M193.544 137.191C193.544 137.191 191.796 140.88 194.624 141.685C197.452 142.491 197.772 134.739 197.772 134.739L194.413 129.055L187.082 129L186.634 133.64C186.634 133.64 187.586 134.501 193.764 135.031L193.544 137.191Z" fill="#231C61"/>
<path d="M191.503 133.439L192.922 137.329L195.429 135.663L191.503 133.439Z" fill="#231C61"/>
</g>
<path d="M193.013 136.093C192.519 136.697 192.61 137.585 193.214 138.079C193.818 138.573 194.706 138.482 195.2 137.878C195.695 137.274 195.603 136.386 194.999 135.892C194.395 135.397 193.507 135.489 193.013 136.093Z" fill="#EB8175"/>
<path d="M186.845 134.043C186.845 134.043 186.598 129.97 189.6 128.112C192.071 126.584 195.411 127.417 196.784 129.989C197.425 131.197 197.791 132.881 197.37 135.215L186.854 134.043H186.845Z" fill="#F5D100"/>
<path d="M187.385 134.089L187.861 131.682C187.98 131.068 188.565 130.666 189.179 130.766C189.783 130.867 190.213 131.425 190.14 132.029L189.874 134.482" stroke="#F1AB00" stroke-width="0.28" stroke-miterlimit="10"/>
<path d="M197.361 135.215L185.92 133.924" stroke="white" stroke-width="1.13" stroke-linecap="round" stroke-linejoin="round"/>
<path d="M267.195 164.823L255.36 176.492" stroke="#3D5AC4" stroke-width="2.65" stroke-miterlimit="10"/>
<path d="M267.195 152.357L255.36 164.026" stroke="#3D5AC4" stroke-width="2.65" stroke-miterlimit="10"/>
<path d="M267.195 139.882L255.36 151.551" stroke="#3D5AC4" stroke-width="2.65" stroke-miterlimit="10"/>
<path d="M267.195 127.417L255.36 139.086" stroke="#3D5AC4" stroke-width="2.65" stroke-miterlimit="10"/>
<path d="M267.195 114.941L255.36 126.611" stroke="#3D5AC4" stroke-width="2.65" stroke-miterlimit="10"/>
<path d="M267.195 102.467L255.36 114.136" stroke="#3D5AC4" stroke-width="2.65" stroke-miterlimit="10"/>
<path d="M267.195 90.001L255.36 101.67" stroke="#3D5AC4" stroke-width="2.65" stroke-miterlimit="10"/>
<path d="M267.195 77.5264L255.36 89.1958" stroke="#3D5AC4" stroke-width="2.65" stroke-miterlimit="10"/>
<path d="M267.195 65.0605L255.36 76.73" stroke="#3D5AC4" stroke-width="2.65" stroke-miterlimit="10"/>
<path d="M267.195 52.5854L255.36 64.2549" stroke="#3D5AC4" stroke-width="2.65" stroke-miterlimit="10"/>
<path d="M267.195 40.1108L255.36 51.7894" stroke="#3D5AC4" stroke-width="2.65" stroke-miterlimit="10"/>
<path d="M255.36 164.026H267.195" stroke="#3D5AC4" stroke-width="2.65" stroke-miterlimit="10"/>
<path d="M255.36 151.551H267.195" stroke="#3D5AC4" stroke-width="2.65" stroke-miterlimit="10"/>
<path d="M255.36 139.086H267.195" stroke="#3D5AC4" stroke-width="2.65" stroke-miterlimit="10"/>
<path d="M255.36 126.611H267.195" stroke="#3D5AC4" stroke-width="2.65" stroke-miterlimit="10"/>
<path d="M255.36 114.136H267.195" stroke="#3D5AC4" stroke-width="2.65" stroke-miterlimit="10"/>
<path d="M255.36 101.67H267.195" stroke="#3D5AC4" stroke-width="2.65" stroke-miterlimit="10"/>
<path d="M255.36 89.1958H267.195" stroke="#3D5AC4" stroke-width="2.65" stroke-miterlimit="10"/>
<path d="M255.36 76.73H267.195" stroke="#3D5AC4" stroke-width="2.65" stroke-miterlimit="10"/>
<path d="M255.36 64.2549H267.195" stroke="#3D5AC4" stroke-width="2.65" stroke-miterlimit="10"/>
<path d="M255.36 51.7896H267.195" stroke="#3D5AC4" stroke-width="2.65" stroke-miterlimit="10"/>
<path d="M255.36 179.878V42.106" stroke="#5571E9" stroke-width="2.65" stroke-miterlimit="10"/>
<path d="M267.194 179.878V42.106" stroke="#5571E9" stroke-width="2.65" stroke-miterlimit="10"/>
<path d="M272.833 176.492H249.256V200.984H272.833V176.492Z" fill="#231C61"/>
<path d="M254.903 18.7856H267.223C269.392 18.7856 271.158 20.5521 271.158 22.7212V38.1797C271.158 40.3489 269.392 42.1153 267.223 42.1153H254.903C252.734 42.1153 250.968 40.3489 250.968 38.1797V22.7212C250.968 20.5521 252.734 18.7856 254.903 18.7856Z" fill="#3D5AC4"/>
<path d="M252.808 24.4053H260.743C262.39 24.4053 263.727 25.7415 263.727 27.389V32.3405C263.727 33.9879 262.39 35.3242 260.743 35.3242H252.808V24.4144V24.4053Z" fill="#2F4DAB"/>
<path d="M177.253 43.3784L186.726 70.8908" stroke="#231C61" stroke-width="2.16" stroke-miterlimit="10"/>
<path d="M170.673 40.1108L152.203 65.0605" stroke="#231C61" stroke-width="2.16" stroke-miterlimit="10"/>
<path d="M141.253 79.0522L160.335 104.002C162.436 106.749 166.365 107.272 169.111 105.172L194.062 86.0891C196.808 83.9886 197.331 80.0595 195.231 77.3132L176.148 52.3629C174.048 49.6166 170.119 49.0931 167.372 51.1936L142.422 70.2764C139.676 72.3768 139.152 76.3059 141.253 79.0522Z" fill="#F5D100"/>
<path d="M146.151 78.8885L161.77 99.3097C163.486 101.554 166.697 101.982 168.942 100.265L189.363 84.6466C191.607 82.93 192.035 79.7189 190.319 77.4745L174.7 57.0534C172.983 54.809 169.772 54.3811 167.528 56.0977L147.107 71.7165C144.862 73.4331 144.434 76.6441 146.151 78.8885Z" stroke="#231C61" stroke-width="1.11" stroke-miterlimit="10"/>
<path d="M169.895 87.484C169.4 91.1907 163.781 90.4402 164.275 86.7335C164.769 82.9992 170.398 83.7497 169.895 87.484ZM172.311 66.7902L170.105 82.3586L165.373 81.727C166.069 76.4918 166.655 71.3939 167.359 66.1221L172.311 66.781V66.7902Z" fill="#231C61"/>
<path d="M174.554 45.7029C178.926 45.7029 182.471 42.1584 182.471 37.786C182.471 33.4137 178.926 29.8691 174.554 29.8691C170.181 29.8691 166.637 33.4137 166.637 37.786C166.637 42.1584 170.181 45.7029 174.554 45.7029Z" fill="#231C61"/>
<path d="M180.155 37.7859C180.155 40.8794 177.647 43.3872 174.553 43.3872C171.46 43.3872 168.952 40.8794 168.952 37.7859C168.952 34.6923 171.46 32.1846 174.553 32.1846C177.647 32.1846 180.155 34.6923 180.155 37.7859Z" fill="#373482"/>
<path d="M205.599 2V18.7857" stroke="#3D5AC4" stroke-width="2.65" stroke-miterlimit="10"/>
<path d="M190.552 2V18.7857" stroke="#3D5AC4" stroke-width="2.65" stroke-miterlimit="10"/>
<path d="M220.6 2V18.7857" stroke="#3D5AC4" stroke-width="2.65" stroke-miterlimit="10"/>
<path d="M237.267 2V18.7857" stroke="#3D5AC4" stroke-width="2.65" stroke-miterlimit="10"/>
<path d="M252.808 2V18.7857" stroke="#3D5AC4" stroke-width="2.65" stroke-miterlimit="10"/>
<path d="M268.925 2V18.7857" stroke="#3D5AC4" stroke-width="2.65" stroke-miterlimit="10"/>
<path d="M284.759 2V18.7857" stroke="#3D5AC4" stroke-width="2.65" stroke-miterlimit="10"/>
<path d="M189.765 18.7857L205.598 2" stroke="#3D5AC4" stroke-width="2.65" stroke-miterlimit="10"/>
<path d="M205.599 18.7857L221.432 2" stroke="#3D5AC4" stroke-width="2.65" stroke-miterlimit="10"/>
<path d="M221.433 18.7857L237.266 2" stroke="#3D5AC4" stroke-width="2.65" stroke-miterlimit="10"/>
<path d="M237.267 18.7857L253.1 2" stroke="#3D5AC4" stroke-width="2.65" stroke-miterlimit="10"/>
<path d="M253.101 18.7857L268.925 2" stroke="#3D5AC4" stroke-width="2.65" stroke-miterlimit="10"/>
<path d="M268.925 18.7857L284.759 2" stroke="#3D5AC4" stroke-width="2.65" stroke-miterlimit="10"/>
<path d="M174.554 18.7857H303.64L286.26 2H187.907L174.554 18.7857Z" stroke="#5571E9" stroke-width="2.65" stroke-linecap="round" stroke-linejoin="round"/>
<path d="M174.554 18.7856V37.7862" stroke="#5571E9" stroke-width="2.65" stroke-linecap="round" stroke-linejoin="round"/>
<path d="M106.312 198.723L115.345 175.366C115.776 174.25 117.35 174.25 117.78 175.366L126.813 198.723H106.303H106.312Z" fill="#F5D100"/>
<mask id="mask3_344_850" style="mask-type:luminance" maskUnits="userSpaceOnUse" x="106" y="174" width="21" height="25">
<path d="M106.312 198.723L115.345 175.366C115.776 174.25 117.35 174.25 117.78 175.366L126.813 198.723H106.303H106.312Z" fill="white"/>
</mask>
<g mask="url(#mask3_344_850)">
<path d="M124.443 180.391H108.398V185.352H124.443V180.391Z" fill="#FAFAFA"/>
<path d="M125.679 189.754H107.529V194.715H125.679V189.754Z" fill="#FAFAFA"/>
</g>
<path d="M128.571 198.724H104.655V200.691H128.571V198.724Z" fill="#E8C400"/>
<path d="M237.513 198.797L246.547 175.44C246.977 174.323 248.551 174.323 248.981 175.44L258.015 198.797H237.504H237.513Z" fill="#F5D100"/>
<mask id="mask4_344_850" style="mask-type:luminance" maskUnits="userSpaceOnUse" x="237" y="174" width="22" height="25">
<path d="M237.513 198.797L246.547 175.44C246.977 174.323 248.551 174.323 248.981 175.44L258.015 198.797H237.504H237.513Z" fill="white"/>
</mask>
<g mask="url(#mask4_344_850)">
<path d="M255.654 180.464H239.609V185.425H255.654V180.464Z" fill="#FAFAFA"/>
<path d="M256.88 189.827H238.73V194.788H256.88V189.827Z" fill="#FAFAFA"/>
</g>
<path d="M259.781 198.797H235.865V200.765H259.781V198.797Z" fill="#E8C400"/>
<path d="M75.7857 162.438C77.312 152.189 70.2406 142.643 59.9913 141.117C49.7421 139.591 40.1961 146.662 38.6698 156.911C37.1435 167.161 44.2149 176.707 54.4642 178.233C64.7135 179.759 74.2594 172.688 75.7857 162.438Z" fill="#5571E9"/>
<path d="M57.2363 152.998V200.691" stroke="#3D5AC4" stroke-width="1.14" stroke-linecap="round" stroke-linejoin="round"/>
<path d="M49.9326 153.977L57.2363 162.159" stroke="#3D5AC4" stroke-width="1.14" stroke-linecap="round" stroke-linejoin="round"/>
<path d="M63.7071 161.702C63.1854 162.223 57.2363 168.42 57.2363 168.42" stroke="#3D5AC4" stroke-width="1.14" stroke-linecap="round" stroke-linejoin="round"/>
<path d="M0.74707 201.148H315.51" stroke="#3D5AC4" stroke-width="1.14" stroke-linecap="round" stroke-linejoin="round"/>
</svg>
